<svg width="28" height="31" viewBox="0 0 28 31" fill="none" xmlns="http://www.w3.org/2000/svg">
<path opacity="0.78" fill-rule="evenodd" clip-rule="evenodd" d="M12.6312 9.00337C12.6512 8.74287 12.8684 8.54172 13.1297 8.54172H13.5475C13.8044 8.54172 14.0195 8.73636 14.045 8.99197L14.6667 15.2084L19.0814 17.7311C19.2372 17.8201 19.3333 17.9858 19.3333 18.1652V18.5538C19.3333 18.8834 19.0199 19.1229 18.7018 19.0361L12.3987 17.3171C12.1673 17.254 12.0133 17.0355 12.0317 16.7964L12.6312 9.00337Z" fill="#FF9066"/>
<path opacity="0.901274" fill-rule="evenodd" clip-rule="evenodd" d="M6.72176 0.17892C6.45765 -0.135828 5.94771 -0.0153579 5.85238 0.384305L4.21891 7.23244C4.14123 7.55809 4.39931 7.86659 4.73356 7.84765L11.7783 7.44844C12.1892 7.42515 12.3976 6.94312 12.133 6.62784L10.3316 4.481C11.4965 4.08295 12.7317 3.87505 14 3.87505C20.2592 3.87505 25.3333 8.94916 25.3333 15.2084C25.3333 21.4676 20.2592 26.5417 14 26.5417C7.74077 26.5417 2.66667 21.4676 2.66667 15.2084C2.66667 14.1576 2.80896 13.1285 3.08641 12.1393L0.518845 11.4191C0.180793 12.6243 0 13.8952 0 15.2084C0 22.9404 6.26801 29.2084 14 29.2084C21.732 29.2084 28 22.9404 28 15.2084C28 7.4764 21.732 1.20838 14 1.20838C12.0551 1.20838 10.2029 1.60496 8.51973 2.32166L6.72176 0.17892Z" fill="#FF9066"/>
</svg>
